<?xml version="1.0" encoding="utf-8"?>
<!-- Generator: Adobe Illustrator 22.0.1, SVG Export Plug-In . SVG Version: 6.00 Build 0)  -->
<svg version="1.1" id="Layer_1" xmlns="http://www.w3.org/2000/svg" xmlns:xlink="http://www.w3.org/1999/xlink" x="0px" y="0px"
	 viewBox="0 0 554.8 518.4" style="enable-background:new 0 0 554.8 518.4;" xml:space="preserve">
<style type="text/css">
	.st0{fill:#FFFFFF;}
</style>
<g id="Layer_2_1_">
	<path class="st0" d="M257.6,219.5c71.9-80.6,110.7-123,176.2-192.1c27.7-29.2,86.9-38.5,111-10.9c11.6,13.3,14.7,36.5,1.5,73.5
		c-10.4,29.2-168.8,179-185.4,203c-16.7,24-2.1,40.7,16.7,53.2c18.7,12.5,108.3,87.5,87.5,133.3c-20.8,45.8-60.4,43.7-102.1,31.2
		s-66.7-79.2-95.8-83.3c-29.2-4.2-45.8,14.6-60.4,29.2c-14.6,14.6-72.9,66.7-125,47.9C29.5,485.7,29.5,444,48.3,419
		s106.3-75,100-93.7S48.6,224.1,15.7,185.4C-27.5,120.6,27.6,65.1,72,70.7c60.4,7.7,150.7,133.7,155.4,140c1,1.3,5.3,7.4,12.9,9.8
		C246.6,222.5,252.7,221.3,257.6,219.5z"/>
</g>
</svg>
